<?xml version="1.0" encoding="UTF-8" standalone="no"?>
<svg
   id="svg"
   width="210.25681"
   height="269.64621"
   viewBox="0 0 210.25681 269.64621"
   version="1.1"
   xmlns="http://www.w3.org/2000/svg"
   xmlns:svg="http://www.w3.org/2000/svg">
  <defs
     id="defs1" />
  <g
     id="svgg"
     transform="translate(-94.868752,-53.155186)">
    <path
       id="path0"
       d="m 181.641,53.256 c -4.7,0.336 -10.255,1.549 -15.528,3.391 -8.337,2.912 -15.354,7.277 -22.069,13.729 -1.288,1.238 -2.357,2.235 -2.376,2.216 -0.058,-0.058 0.5,-2.115 0.936,-3.451 0.537,-1.645 2.267,-5.046 3.378,-6.643 1.088,-1.563 1.177,-1.529 -1.472,-0.564 -9.786,3.566 -16.718,9.235 -20.457,16.73 -1.324,2.653 -2.569,6.875 -2.569,8.71 v 0.672 l -1.318,0.223 c -7.378,1.246 -13.901,5.829 -17.695,12.434 -0.5,0.87 -0.908,1.636 -0.908,1.703 0,0.067 -0.226,0.613 -0.501,1.215 -0.681,1.49 -0.574,1.573 0.856,0.669 2.463,-1.559 5.021,-2.507 7.652,-2.836 l 1.075,-0.134 -0.391,0.446 c -0.215,0.245 -0.683,0.761 -1.04,1.146 -7.557,8.164 -10.394,18.855 -9.126,34.393 1.304,15.982 3.471,29.72 6.756,42.825 0.64,2.553 1.164,4.72 1.164,4.815 0,0.094 -0.656,0.318 -1.457,0.496 -12.417,2.763 -15.541,24.559 -6.433,44.874 4.804,10.715 12.03,17.32 19.577,17.896 l 1.689,0.129 0.154,0.976 c 2.039,12.936 6.58,23.838 13.993,33.594 3.862,5.082 12.57,14.279 17.763,18.761 14.805,12.775 21.491,16.768 32.657,19.503 13.5,3.306 29.617,1.481 40.807,-4.62 11.325,-6.174 29.771,-22.7 38.209,-34.23 2.99,-4.085 8.08,-12.824 8.08,-13.871 0,-0.073 0.126,-0.409 0.28,-0.748 2.291,-5.042 4.451,-12.802 5.098,-18.312 l 0.129,-1.096 1.787,-0.111 c 9.622,-0.599 18.197,-10.75 22.806,-26.995 4.937,-17.405 0.271,-34.255 -9.956,-35.948 -0.391,-0.064 -0.81,-0.147 -0.931,-0.184 -0.219,-0.067 0.431,-2.889 1.551,-6.739 4.572,-15.709 7.508,-43.802 5.837,-55.859 -1.907,-13.768 -8.792,-24.416 -19.668,-30.418 l -0.976,-0.539 0.976,-0.063 c 1.473,-0.094 4.524,0.312 6.573,0.876 1.004,0.276 2.036,0.549 2.294,0.605 l 0.467,0.103 -0.454,-0.809 c -0.893,-1.588 -4.49,-5.845 -6.963,-8.239 C 269.936,72.398 253.898,66.663 233.301,66.6 c -3.138,-0.009 -3.658,-0.051 -3.368,-0.272 0.743,-0.563 6.983,-2.447 10.155,-3.065 3.796,-0.739 3.762,-0.708 1.66,-1.543 -21.894,-8.699 -45.984,-8.646 -66.748,0.147 -1.329,0.563 4.778,-5.052 7.91,-7.272 1.021,-0.724 1.856,-1.35 1.856,-1.393 0,-0.081 -1.631,-0.053 -3.125,0.054 m -16.309,67.338 c 0.967,0.166 2.461,0.484 3.32,0.707 0.86,0.223 1.88,0.485 2.268,0.582 0.388,0.098 1.794,0.582 3.125,1.076 5.306,1.972 10.475,5.003 16.678,9.782 2.963,2.283 4.483,3.437 4.981,3.782 0.233,0.162 1.097,0.785 1.92,1.385 7.068,5.156 18.041,10.387 26.972,12.857 1.831,0.507 1.819,0.558 0.293,-1.272 -4.455,-5.341 -8.099,-11.844 -9.731,-17.364 -0.285,-0.967 -0.603,-2.016 -0.706,-2.331 -0.28,-0.856 -0.225,-0.812 1.457,1.177 3.328,3.932 9.13,9.335 14.469,13.473 8.14,6.308 18.711,11.518 27.581,13.594 2.319,0.543 2.307,0.553 1.022,-0.833 -3.415,-3.685 -7.085,-9.672 -8.847,-14.436 -0.259,-0.698 -0.54,-1.445 -0.626,-1.66 -0.085,-0.215 0.704,0.514 1.755,1.619 5.319,5.594 12.286,10.539 18.757,13.312 3.593,1.54 3.998,1.768 4.465,2.511 2.256,3.595 3.828,13.238 3.834,23.525 l 10e-4,3.272 h -4.661 -4.661 l -0.348,-0.928 c -9.126,-24.311 -41.957,-28.198 -55.916,-6.62 -1.122,1.736 -3.164,5.842 -3.164,6.365 0,0.289 -0.105,0.269 -1.51,-0.293 -5.087,-2.035 -11.534,-2.016 -16.259,0.049 -1.273,0.557 -1.232,0.589 -2.166,-1.678 -6.365,-15.44 -25.446,-22.834 -41.292,-16.001 -7.748,3.341 -14.679,10.834 -17.041,18.422 l -0.182,0.586 -4.622,0.052 -4.623,0.053 v -1.128 c 0,-4.706 1.801,-12.096 3.365,-13.809 0.19,-0.208 0.346,-0.438 0.346,-0.51 0,-0.153 1.024,-2.005 2.641,-4.775 3.127,-5.358 3.996,-8.503 4.967,-17.969 0.331,-3.223 0.651,-6.123 0.712,-6.445 0.41,-2.18 1.117,-5.055 1.355,-5.512 0.156,-0.299 0.284,-0.675 0.285,-0.836 0.002,-0.443 1.655,-3.562 2.671,-5.041 3.489,-5.076 9.522,-8.351 16.763,-9.098 1.686,-0.174 8.655,0.067 10.352,0.358 m -0.494,50.215 c 16.188,2.626 25.204,20.125 17.99,34.917 -8.88,18.208 -34.534,18.175 -43.675,-0.056 -8.798,-17.547 6.277,-38.008 25.685,-34.861 m 78.125,0 c 15.868,2.574 25.022,19.923 18.161,34.419 -5.281,11.161 -17.965,16.84 -29.282,13.112 -12.798,-4.216 -20.27,-18.38 -16.114,-30.547 0.488,-1.428 1.648,-4.197 2,-4.774 5.612,-9.186 15.218,-13.834 25.235,-12.21 m -84.76,13.562 c -6.927,1.837 -12.18,9.79 -8.123,12.298 2.117,1.308 3.648,0.648 5.383,-2.323 2.86,-4.897 8.916,-4.801 11.664,0.185 2.145,3.893 6.717,3.574 6.696,-0.468 -0.032,-5.962 -8.911,-11.472 -15.62,-9.692 m 77.539,0.014 c -6.953,1.8 -12.037,9.711 -7.946,12.363 1.885,1.223 3.813,0.473 4.992,-1.941 2.556,-5.235 9.116,-5.479 11.834,-0.439 1.225,2.271 2.04,2.898 3.767,2.898 3.128,0 3.931,-3.397 1.657,-7.011 -3.052,-4.85 -8.928,-7.262 -14.304,-5.87 m -32.313,5.042 c 0.758,0.197 2.032,0.701 2.832,1.12 l 1.454,0.762 0.025,2.996 c 0.093,10.975 4.242,19.524 12.447,25.651 20.678,15.44 50.126,0.782 50.126,-24.951 v -2.622 h 3.991 3.992 l -0.087,0.635 c -0.048,0.349 -0.31,3.007 -0.582,5.908 -0.795,8.457 -2.291,21.876 -2.538,22.754 -0.045,0.161 -0.611,4.424 -1.258,9.472 -0.647,5.049 -1.349,10.235 -1.56,11.524 -0.211,1.289 -0.614,3.794 -0.896,5.566 -1.16,7.299 -2.01,10.414 -4.425,16.211 -4.454,10.692 -11.861,20.224 -24.372,31.366 -17.238,15.351 -25.151,19.186 -40.723,19.736 -16.819,0.593 -28.007,-4.515 -45.601,-20.82 -14.237,-13.195 -20.448,-21.989 -25.081,-35.515 -1.489,-4.349 -2.913,-12.046 -4.512,-24.389 -0.898,-6.932 -1.052,-8.102 -1.745,-13.249 -1.135,-8.441 -3.041,-26.236 -3.041,-28.404 v -0.795 h 3.96 3.96 l -0.076,2.041 c -0.754,20.382 19.446,36.223 39.324,30.836 0.645,-0.175 1.255,-0.393 1.357,-0.484 0.102,-0.092 0.329,-0.167 0.504,-0.167 0.175,0 0.882,-0.227 1.572,-0.505 12.579,-5.067 20.491,-17.11 19.844,-30.205 l -0.113,-2.292 0.625,-0.469 c 2.522,-1.89 7.076,-2.625 10.597,-1.711 m -90.636,3.034 c 1.769,0.575 1.573,-0.134 2.636,9.522 1.121,10.193 2.703,23.082 3.508,28.583 0.742,5.083 1.376,9.862 1.376,10.39 0,0.464 -0.407,0.415 -2.344,-0.282 -8.252,-2.97 -15.998,-19.306 -16.012,-33.768 -0.011,-10.992 4.196,-16.599 10.836,-14.445 m 179.646,0.002 c 3.616,1.768 6.149,8.763 5.699,15.74 -0.326,5.06 -0.432,5.813 -1.297,9.18 -3.454,13.444 -9.956,22.898 -16.332,23.743 l -0.963,0.128 0.261,-1.633 c 0.927,-5.809 2.806,-20.177 4.095,-31.32 0.274,-2.371 0.333,-2.912 1.043,-9.571 0.582,-5.46 0.557,-5.332 1.127,-5.705 1.62,-1.062 4.775,-1.34 6.367,-0.562 m -105.052,36.261 c -2.237,0.656 -2.881,3.476 -1.225,5.361 3.831,4.363 13.877,6.419 20.51,4.196 7.042,-2.359 10.256,-6.547 6.951,-9.055 -1.434,-1.089 -2.747,-0.868 -5.025,0.845 -4.971,3.74 -11.662,3.749 -17.094,0.024 -2.176,-1.492 -2.893,-1.731 -4.117,-1.371 m -20.981,23.159 c -3.059,1.097 -3.358,3.612 -0.718,6.043 4.853,4.469 12.881,8.288 21.083,10.028 1.529,0.325 3.175,0.682 3.659,0.793 7.788,1.797 23.276,0.272 30.761,-3.029 0.323,-0.142 1.246,-0.537 2.051,-0.878 5.503,-2.326 12.217,-7.013 12.72,-8.879 0.982,-3.64 -2.883,-5.501 -5.884,-2.832 -12.721,11.315 -38.128,12.956 -54.955,3.55 -1.798,-1.004 -4.915,-3.054 -5.099,-3.352 -0.52,-0.841 -2.781,-1.744 -3.618,-1.444 m 42.676,24.61 c -5.553,1.91 -12.599,1.898 -18.275,-0.033 -2.708,-0.921 -3.982,-0.375 -3.982,1.706 0,3.127 11.483,5.36 19.358,3.765 1.333,-0.27 2.575,-0.568 2.759,-0.664 0.185,-0.095 0.971,-0.408 1.748,-0.697 1.797,-0.666 2.591,-1.376 2.591,-2.315 0,-2.236 -1.271,-2.77 -4.199,-1.762"
       stroke="none"
       fill="#000000"
       fill-rule="evenodd" />
  </g>
</svg>
