<?xml version="1.0" encoding="UTF-8" standalone="no"?>
<svg
   id="svg"
   width="198.633"
   height="199.67899"
   viewBox="0 0 198.633 199.67899"
   version="1.1"
   xmlns="http://www.w3.org/2000/svg"
   xmlns:svg="http://www.w3.org/2000/svg">
  <defs
     id="defs1" />
  <g
     id="svgg"
     transform="translate(-100.586,-97.07)">
    <path
       id="path0"
       d="m 100.586,196.875 v 99.805 l 89.6,0.04 c 49.279,0.022 89.951,0.034 90.38,0.027 0.43,-0.008 4.803,-0.026 9.717,-0.04 l 8.936,-0.027 V 196.875 97.07 h -99.317 -99.316 v 99.805 m 81.348,-45.187 c 4.527,0.552 9.313,2.048 12.6,3.938 2.464,1.418 2.374,1.124 0.952,3.103 -1.719,2.391 -6.227,8.585 -7.817,10.739 l -1.323,1.792 -1.849,-0.66 c -18.64,-6.663 -37.834,0.59 -43.688,16.509 -1.827,4.97 -1.811,4.676 -1.829,33.301 l -0.015,24.219 h -8.496 -8.496 l -0.05,-45.752 -0.049,-45.752 h 8.592 8.592 l 0.051,7.139 0.051,7.138 0.704,-0.937 c 8.49,-11.304 24.478,-16.92 42.07,-14.777 m 67.285,0.074 c 12.037,0.834 21.448,4.484 28.95,11.229 l 0.938,0.843 -0.512,0.403 c -0.281,0.222 -2.634,2.456 -5.227,4.966 -2.594,2.51 -5.049,4.853 -5.456,5.207 l -0.74,0.644 -0.432,-0.397 c -8.826,-8.109 -28.308,-9.728 -40.177,-3.34 -21.151,11.383 -21.084,44.391 0.112,55.185 11.71,5.963 28.229,4.967 38.433,-2.318 0.951,-0.679 1.842,-1.316 1.98,-1.415 0.307,-0.221 -0.46,-0.894 11.525,10.11 l 0.782,0.718 -1.075,0.979 c -9.792,8.926 -23.87,12.821 -40.625,11.239 -27.058,-2.554 -44.467,-20.702 -44.604,-46.499 -0.137,-25.78 16.886,-44.219 43.628,-47.254 4.648,-0.528 8.033,-0.609 12.5,-0.3"
       stroke="none"
       fill="#000000"
       fill-rule="evenodd" />
  </g>
</svg>
